<svg width="85" height="85" viewBox="0 0 85 85" fill="none" xmlns="http://www.w3.org/2000/svg">
<path d="M25.4443 15.0104H29.7931C30.2458 15.0104 30.6133 14.643 30.6133 14.1903C30.6133 13.7375 30.2458 13.3701 29.7931 13.3701H25.4443C24.9915 13.3701 24.6241 13.7375 24.6241 14.1903C24.6241 14.643 24.9915 15.0104 25.4443 15.0104Z" fill="white"/>
<path d="M22.0676 15.0104H22.7325C23.1853 15.0104 23.5527 14.643 23.5527 14.1903C23.5527 13.7375 23.1853 13.3701 22.7325 13.3701H22.0676C21.6148 13.3701 21.2474 13.7375 21.2474 14.1903C21.2474 14.643 21.6148 15.0104 22.0676 15.0104Z" fill="white"/>
<ellipse cx="44.0797" cy="44.3728" rx="30.0797" ry="30.3728" fill="url(#paint0_linear)"/>
<rect width="20.7787" height="33.3524" rx="1.09352" transform="matrix(-1 0 0 1 38.1465 16.561)" fill="white"/>
<path d="M53.0035 84.2074C53.2195 84.2074 53.4262 84.1227 53.5804 83.9707L72.3524 65.4208C72.5098 65.2649 72.5973 65.0522 72.5957 64.8308C72.594 64.6094 72.5027 64.3983 72.3431 64.2452L63.493 55.7677C63.1682 55.4582 62.6563 55.4648 62.3414 55.7841L44.1064 74.2783C43.7931 74.5959 43.7914 75.1066 44.1031 75.4265L52.4163 83.9598C52.5683 84.1161 52.7771 84.2053 52.9959 84.2074C52.9986 84.2074 53.0008 84.2074 53.0035 84.2074ZM70.5998 64.8467L53.015 82.2232L45.8392 74.8567L62.9418 57.5108L70.5998 64.8467Z" fill="white"/>
<path d="M60.3793 59.7657C60.568 59.7657 60.7572 59.7012 60.9119 59.5689C61.2564 59.2747 61.2969 58.7569 61.0021 58.413L55.9589 52.5168C55.8938 50.8316 55.5253 42.5499 54.4885 39.6827C52.7196 34.7892 43.5365 22.9026 42.9432 22.1371C42.8251 21.9638 42.2444 21.1491 41.3361 20.4744C40.9736 20.2054 40.4591 20.2798 40.1884 20.6439C39.9183 21.0075 39.9943 21.5209 40.3579 21.7916C41.1158 22.3542 41.5888 23.0622 41.5937 23.0694C41.6052 23.0863 41.6183 23.1049 41.6309 23.1218C41.7255 23.2443 51.2438 35.5327 52.946 40.2398C53.9904 43.1283 54.3267 52.7623 54.33 52.8596C54.3365 53.0455 54.4054 53.2237 54.5263 53.3648L59.7554 59.4787C59.9173 59.6684 60.1475 59.7657 60.3793 59.7657Z" fill="white"/>
<path d="M47.4457 72.8778C47.6573 72.8778 47.8684 72.7969 48.0286 72.6345C48.3474 72.3124 48.3441 71.793 48.022 71.4748L42.4932 66.0099C42.3314 65.8497 42.1198 65.7704 41.8808 65.7732C41.7862 65.7808 31.9147 66.1056 26.8698 58.4931C26.6199 58.1147 26.1097 58.013 25.7335 58.2623C25.3557 58.5122 25.2523 59.0212 25.5028 59.3985C30.523 66.9739 39.5109 67.4195 41.5494 67.4195C41.5615 67.4195 41.574 67.4195 41.5861 67.4195L46.8688 72.641C47.0295 72.7985 47.2373 72.8778 47.4457 72.8778Z" fill="white"/>
<path d="M14.5665 31.1659C15.0193 31.1659 15.3867 30.7985 15.3867 30.3458V29.9598C15.3867 29.5071 15.0193 29.1396 14.5665 29.1396C14.1137 29.1396 13.7463 29.5071 13.7463 29.9598V30.3458C13.7463 30.7991 14.1137 31.1659 14.5665 31.1659Z" fill="white"/>
<path d="M44.2342 56.7589C44.3245 56.7589 44.4163 56.7441 44.5066 56.7124C44.9336 56.5621 45.1584 56.0935 45.008 55.6665C41.323 45.1999 41.5789 43.991 42.2625 40.758C42.3445 40.3676 42.4336 39.9499 42.5222 39.4878C42.6069 39.0433 42.3155 38.613 41.8709 38.5277C41.4247 38.4452 40.996 38.7344 40.9107 39.1789C40.8249 39.63 40.7385 40.0373 40.6576 40.419C39.9259 43.8783 39.623 45.3103 43.4611 56.2111C43.5792 56.5484 43.8963 56.7589 44.2342 56.7589Z" fill="white"/>
<path d="M15.336 59.3876C15.7888 59.3876 16.1562 59.0202 16.1562 58.5675C16.1562 58.1148 15.7888 57.7474 15.336 57.7474C15.0911 57.7474 14.8915 57.5478 14.8915 57.3023V49.5438C14.8915 49.0911 14.524 48.7236 14.0713 48.7236C13.6185 48.7236 13.2511 49.0911 13.2511 49.5438V57.3023C13.2511 58.4521 14.1861 59.3876 15.336 59.3876Z" fill="white"/>
<path d="M15.1441 30.884C15.6204 30.884 16.083 30.7451 16.4816 30.4821L17.1536 30.0365C18.2702 29.2989 18.5786 27.7898 17.841 26.6728L16.0162 23.9144C15.5651 23.232 14.8067 22.8247 13.9876 22.8247C13.5113 22.8247 13.0487 22.9636 12.6501 23.2266L11.9786 23.6711C11.4373 24.0287 11.0676 24.576 10.938 25.2119C10.809 25.8477 10.9348 26.4962 11.2924 27.0369L13.1165 29.7948C13.5671 30.4766 14.3255 30.884 15.1441 30.884ZM13.9876 24.4644C14.2544 24.4644 14.501 24.5968 14.6481 24.8182L16.4723 27.5761C16.7118 27.9386 16.6112 28.429 16.2486 28.6679L15.5766 29.1135C15.2261 29.3448 14.717 29.2388 14.4852 28.8894L12.6605 26.1315C12.544 25.9555 12.5036 25.745 12.5451 25.5383C12.5872 25.3321 12.7075 25.1545 12.883 25.038L13.5545 24.594C13.6836 24.5093 13.8339 24.4644 13.9876 24.4644Z" fill="white"/>
<path d="M14.2533 36.6795C14.7301 36.6795 15.1932 36.5401 15.5919 36.2771L16.2639 35.8325C17.3799 35.0933 17.6878 33.5843 16.9501 32.4672L15.126 29.7083C14.6749 29.0259 13.9164 28.6191 13.0979 28.6191C12.621 28.6191 12.1579 28.7586 11.7598 29.0221L11.0883 29.4661C10.547 29.8237 10.1774 30.3715 10.0483 31.0079C9.91872 31.6438 10.045 32.2917 10.4032 32.8325L12.2263 35.5903C12.6768 36.2716 13.4347 36.6795 14.2533 36.6795ZM13.0979 30.2589C13.3642 30.2589 13.6108 30.3912 13.7579 30.6126L15.5815 33.371C15.821 33.7335 15.7209 34.2245 15.3584 34.464L14.6874 34.908C14.3347 35.1414 13.8251 35.0354 13.5949 34.6854L11.7708 31.9265C11.6543 31.7504 11.6133 31.5405 11.6554 31.3344C11.6975 31.1277 11.8172 30.95 11.9933 30.8335L12.6648 30.3895C12.7938 30.3043 12.9437 30.2589 13.0979 30.2589Z" fill="white"/>
<path d="M14.2535 43.6453C14.7304 43.6453 15.194 43.5053 15.5927 43.2418L16.2636 42.7984C17.3802 42.0591 17.6875 40.5501 16.9504 39.4331L15.1262 36.6741C14.6751 35.9918 13.9167 35.585 13.0981 35.585C12.6213 35.585 12.1582 35.7244 11.7601 35.9879L11.0886 36.4319C10.5478 36.7895 10.1782 37.3368 10.0486 37.9721C9.91899 38.608 10.0448 39.2565 10.4029 39.7977L12.2265 42.5556C12.6771 43.238 13.435 43.6453 14.2535 43.6453ZM13.0981 37.2252C13.3644 37.2252 13.611 37.3576 13.7581 37.579L15.5817 40.3374C15.8212 40.6999 15.7212 41.1909 15.3586 41.4304L14.6883 41.8738C14.3334 42.1084 13.8259 42.0017 13.5952 41.6513L11.771 38.8929C11.6546 38.7168 11.6135 38.5063 11.6557 38.3002C11.6978 38.094 11.8181 37.9163 11.9936 37.7999L12.6651 37.3559C12.7941 37.2706 12.9439 37.2252 13.0981 37.2252Z" fill="white"/>
<path d="M14.2535 50.1062C14.7304 50.1062 15.194 49.9663 15.5927 49.7027L16.2636 49.2593C17.3802 48.5201 17.6875 47.011 16.9504 45.894L15.1262 43.1345C14.6746 42.4527 13.9162 42.0459 13.0976 42.0459C12.6213 42.0459 12.1587 42.1848 11.7601 42.4478L11.0886 42.8923C10.5478 43.2504 10.1782 43.7977 10.0486 44.4331C9.91899 45.0689 10.0448 45.7174 10.4029 46.2587L12.2265 49.0165C12.6771 49.6989 13.435 50.1062 14.2535 50.1062ZM13.0976 43.6862C13.3644 43.6862 13.6116 43.8179 13.7581 44.0394L15.5817 46.7983C15.8212 47.1608 15.7212 47.6518 15.3586 47.8913L14.6883 48.3347C14.3334 48.5693 13.8259 48.4621 13.5952 48.1122L11.771 45.3538C11.6546 45.1777 11.6135 44.9672 11.6557 44.7611C11.6978 44.5544 11.8181 44.3767 11.9941 44.2603L12.6651 43.8163C12.7936 43.731 12.9439 43.6862 13.0976 43.6862Z" fill="white"/>
<path d="M40.8458 58.1852C41.2986 58.1852 41.666 57.8177 41.666 57.365V36.4061C41.666 35.9534 41.2986 35.5859 40.8458 35.5859C40.393 35.5859 40.0256 35.9534 40.0256 36.4061V57.365C40.0256 57.8177 40.393 58.1852 40.8458 58.1852Z" fill="white"/>
<path d="M39.2365 59.3876C40.5762 59.3876 41.666 58.2985 41.666 56.9595V47.097C41.666 46.6443 41.2986 46.2769 40.8458 46.2769C40.393 46.2769 40.0256 46.6443 40.0256 47.097V56.9595C40.0256 57.3941 39.6718 57.7473 39.2365 57.7473C38.7838 57.7473 38.4163 58.1148 38.4163 58.5675C38.4163 59.0202 38.7838 59.3876 39.2365 59.3876Z" fill="white"/>
<path d="M15.4604 59.3878H39.2384C39.6911 59.3878 40.0586 59.0204 40.0586 58.5677C40.0586 58.115 39.6911 57.7476 39.2384 57.7476H15.461C15.0082 57.7476 14.6407 58.115 14.6407 58.5677C14.6407 59.0204 15.0077 59.3878 15.4604 59.3878Z" fill="white"/>
<path d="M27.5281 55.438C28.8672 55.438 29.957 54.3483 29.957 53.0093C29.957 51.6698 28.8672 50.5801 27.5281 50.5801C26.1884 50.5801 25.0986 51.6698 25.0986 53.0093C25.0986 54.3483 26.1884 55.438 27.5281 55.438ZM27.5281 52.2198C27.9628 52.2198 28.3166 52.5736 28.3166 53.0088C28.3166 53.4435 27.9628 53.7972 27.5281 53.7972C27.0928 53.7972 26.7391 53.4435 26.7391 53.0088C26.7391 52.5741 27.0934 52.2198 27.5281 52.2198Z" fill="white"/>
<path d="M41.7184 40.1538C41.7982 40.1538 41.8786 40.1423 41.9579 40.1183C42.3915 39.9865 42.6354 39.5278 42.5031 39.0948L38.6945 26.6149C38.6831 26.5756 38.6672 26.5362 38.6497 26.499C38.3872 25.9446 37.8361 24.2644 38.4441 23.1824C38.8291 22.4973 39.6662 22.0818 40.9332 21.9489C41.3509 21.9046 41.6675 21.5525 41.6675 21.1331V12.4287C41.6675 11.0897 40.5778 10 39.2381 10H16.1759C14.8367 10 13.7475 11.0897 13.7475 12.4287V23.7494C13.7475 24.2021 14.1149 24.5695 14.5677 24.5695C15.0205 24.5695 15.3879 24.2021 15.3879 23.7494V12.4287C15.3879 11.994 15.7412 11.6403 16.1759 11.6403H39.2381C39.6733 11.6403 40.0271 11.994 40.0271 12.4287V20.4273C38.5901 20.7138 37.5769 21.371 37.0093 22.3863C35.9474 24.289 36.9491 26.7166 37.1416 27.1459L40.9343 39.5726C41.042 39.9264 41.3673 40.1538 41.7184 40.1538Z" fill="white"/>
<path d="M50.6152 68.6905C50.7551 68.6905 50.8951 68.6369 51.0018 68.5303C51.2156 68.3165 51.2156 67.971 51.0018 67.7572L47.2157 63.9709C47.0019 63.7571 46.6563 63.7571 46.4425 63.9709C46.2287 64.1847 46.2287 64.5302 46.4425 64.744L50.2286 68.5303C50.3352 68.6375 50.4752 68.6905 50.6152 68.6905Z" fill="white"/>
<rect width="10.937" height="18.3955" transform="matrix(-0.707138 -0.707075 -0.707138 0.707075 70.957 64.7549)" fill="white"/>
<path d="M35.8632 35.7586C35.8632 40.5378 31.8302 44.3773 26.9846 44.0622C22.8521 43.7941 19.5047 40.4439 19.2366 36.3114C19.021 32.9695 20.7817 30.0146 23.463 28.5053C24.143 28.1239 24.9833 28.5993 24.9833 29.3788V29.4009C24.9833 29.7713 24.776 30.1086 24.4526 30.291C22.349 31.4796 21.0029 33.8457 21.3014 36.4966C21.6304 39.3714 23.9467 41.6795 26.8215 42.0001C30.6112 42.4203 33.8177 39.4653 33.8177 35.7613C33.8177 33.4145 32.5323 31.3718 30.6278 30.2938C30.3044 30.1113 30.0943 29.7741 30.0943 29.4037V29.3816C30.0943 28.6076 30.9291 28.1211 31.6035 28.4998C34.1438 29.9234 35.8632 32.6406 35.8632 35.7586Z" fill="#1746EB"/>
<path d="M28.6274 27.4023V32.5935C28.6274 33.1518 28.1741 33.6052 27.6157 33.6052H27.4609C26.9025 33.6052 26.4492 33.1518 26.4492 32.5935V27.4023C26.4492 26.844 26.9025 26.3906 27.4609 26.3906H27.6157C28.1741 26.3906 28.6274 26.844 28.6274 27.4023Z" fill="#1746EB"/>
<defs>
<linearGradient id="paint0_linear" x1="56.1347" y1="17.8754" x2="24.6316" y2="70.9139" gradientUnits="userSpaceOnUse">
<stop stop-color="#E8E2FF"/>
<stop offset="0.969288" stop-color="#C4C4C4" stop-opacity="0"/>
</linearGradient>
</defs>
</svg>
