<svg width="85" height="85" viewBox="0 0 85 85" fill="none" xmlns="http://www.w3.org/2000/svg">
<ellipse cx="50.4254" cy="39.427" rx="30.0797" ry="30.3728" fill="url(#paint0_linear)"/>
<path d="M10.0547 24.7885C10.0547 22.5972 11.8311 20.8208 14.0224 20.8208H19.5975V62.1982H14.0224C11.8311 62.1982 10.0547 60.4218 10.0547 58.2305V24.7885Z" fill="white"/>
<path d="M60.8202 69.5667H22.989C20.5123 69.5667 19.0332 67.8153 19.0332 64.8803V17.6573C19.0332 14.9457 20.4382 13.4521 22.989 13.4521H53.8517C54.0841 13.4521 54.3064 13.5491 54.4658 13.7197L64.2736 24.2414C64.4213 24.399 64.5021 24.6076 64.5021 24.8241V35.9705C64.5021 36.2721 64.3438 36.5509 64.0867 36.704C63.8285 36.8559 63.5113 36.8599 63.2503 36.7131C60.969 35.427 58.8078 34.8284 56.4524 34.8284C52.7397 34.8284 49.1656 36.416 46.6457 39.1838C45.3288 40.6258 44.3616 42.3098 43.7677 44.1888C43.3518 45.5015 43.1407 46.8766 43.1407 48.2772C43.1407 48.3815 43.1396 48.4829 43.1486 48.5827C43.1508 48.6025 43.1519 48.6229 43.1525 48.6428C43.185 50.1635 43.4764 51.6582 44.0215 53.086C45.9772 58.2542 50.9737 61.7248 56.453 61.7248C58.8078 61.7248 60.9684 61.1252 63.2514 59.8402C63.5113 59.6934 63.8296 59.6974 64.0873 59.8493C64.3444 60.0029 64.5027 60.2817 64.5027 60.5833V64.882C64.5021 68.7528 62.5003 69.5667 60.8202 69.5667ZM22.989 15.1526C21.3757 15.1526 20.7172 15.8781 20.7172 17.6573V64.8803C20.7172 66.8619 21.4812 67.8663 22.989 67.8663H60.8214C61.8587 67.8663 62.8186 67.5046 62.8186 64.8803V61.9697C60.7282 62.948 58.6338 63.4242 56.4519 63.4242C50.2788 63.4242 44.6513 59.5143 42.4486 53.6937C41.8378 52.093 41.5078 50.4141 41.4685 48.7057C41.4572 48.5657 41.4567 48.4212 41.4567 48.2749C41.4567 46.6986 41.6947 45.1484 42.1645 43.6684C42.832 41.5531 43.9238 39.6548 45.4063 38.0309C48.2433 34.9146 52.2698 33.1268 56.4524 33.1268C58.6355 33.1268 60.7299 33.6041 62.8192 34.5813V25.1608L53.4897 15.152H22.989V15.1526Z" fill="white"/>
<path d="M63.6715 25.6743C63.4492 25.6743 63.2263 25.5853 63.0607 25.4091L53.2406 14.9485C52.9212 14.6073 52.9346 14.0694 53.2726 13.7463C53.6105 13.4243 54.1432 13.4379 54.4632 13.7786L64.2833 24.2391C64.6022 24.5804 64.5887 25.1183 64.2508 25.4414C64.0897 25.5972 63.8814 25.6743 63.6715 25.6743Z" fill="white"/>
<path d="M53.5569 25.6389C53.0921 25.6389 52.7148 25.258 52.7148 24.7887V14.5861C52.7148 14.1167 53.0921 13.7358 53.5569 13.7358C54.0217 13.7358 54.3989 14.1167 54.3989 14.5861V24.7887C54.3989 25.258 54.0217 25.6389 53.5569 25.6389Z" fill="white"/>
<path d="M63.379 25.9221H53.8362C53.3714 25.9221 52.9941 25.5412 52.9941 25.0719C52.9941 24.6026 53.3714 24.2217 53.8362 24.2217H63.379C63.8438 24.2217 64.221 24.6026 64.221 25.0719C64.221 25.5412 63.8438 25.9221 63.379 25.9221Z" fill="white"/>
<path d="M38.1224 29.323H29.1408C28.6761 29.323 28.2988 28.9421 28.2988 28.4728C28.2988 28.0035 28.6761 27.6226 29.1408 27.6226H38.1224C38.5872 27.6226 38.9644 28.0035 38.9644 28.4728C38.9644 28.9421 38.5872 29.323 38.1224 29.323Z" fill="white"/>
<path d="M47.6652 34.4241H29.1408C28.6761 34.4241 28.2988 34.0432 28.2988 33.5739C28.2988 33.1045 28.6761 32.7236 29.1408 32.7236H47.6652C48.13 32.7236 48.5072 33.1045 48.5072 33.5739C48.5072 34.0432 48.13 34.4241 47.6652 34.4241Z" fill="white"/>
<path d="M45.9812 39.5256H29.1408C28.6761 39.5256 28.2988 39.1447 28.2988 38.6754C28.2988 38.2061 28.6761 37.8252 29.1408 37.8252H45.9812C46.446 37.8252 46.8232 38.2061 46.8232 38.6754C46.8232 39.1447 46.446 39.5256 45.9812 39.5256Z" fill="white"/>
<path d="M42.6131 44.6267H29.1408C28.6761 44.6267 28.2988 44.2458 28.2988 43.7765C28.2988 43.3072 28.6761 42.9263 29.1408 42.9263H42.6131C43.0779 42.9263 43.4551 43.3072 43.4551 43.7765C43.4551 44.2458 43.0779 44.6267 42.6131 44.6267Z" fill="white"/>
<path d="M42.0518 49.7283H29.1408C28.6761 49.7283 28.2988 49.3474 28.2988 48.8781C28.2988 48.4087 28.6761 48.0278 29.1408 48.0278H42.0518C42.5166 48.0278 42.8938 48.4087 42.8938 48.8781C42.8938 49.3474 42.5166 49.7283 42.0518 49.7283Z" fill="white"/>
<path d="M42.6131 54.2629H29.1408C28.6761 54.2629 28.2988 53.882 28.2988 53.4127C28.2988 52.9434 28.6761 52.5625 29.1408 52.5625H42.6131C43.0779 52.5625 43.4551 52.9434 43.4551 53.4127C43.4551 53.882 43.0779 54.2629 42.6131 54.2629Z" fill="white"/>
<path d="M56.459 63.4253C50.2819 63.4253 44.6516 59.5159 42.4489 53.6948C41.8382 52.0941 41.5081 50.4152 41.4688 48.7068C41.4576 48.5668 41.457 48.4223 41.457 48.2755C41.457 46.6997 41.695 45.1495 42.1649 43.6701C42.8318 41.557 43.9241 39.6605 45.4106 38.032C48.2471 34.9157 52.2747 33.1279 56.4595 33.1279C59.1534 33.1279 61.7968 33.858 64.1033 35.2399C68.6457 37.9561 71.4676 42.9514 71.4676 48.2766C71.4676 52.1049 70.0525 55.7551 67.4838 58.558C66.4941 59.6372 65.3568 60.5657 64.1028 61.3144C61.7951 62.6952 59.1517 63.4253 56.459 63.4253ZM56.459 34.8284C52.744 34.8284 49.1693 36.416 46.6483 39.1838C45.3286 40.6297 44.3603 42.3131 43.7681 44.1887C43.3516 45.5015 43.1399 46.8766 43.1399 48.2772C43.1399 48.3815 43.1388 48.4829 43.1484 48.5827C43.1506 48.6025 43.1517 48.6229 43.1523 48.6428C43.1843 50.1635 43.4762 51.6582 44.0213 53.086C45.977 58.2542 50.9763 61.7248 56.459 61.7248C58.8497 61.7248 61.1956 61.0764 63.2445 59.8509C64.3588 59.1844 65.3692 58.3619 66.2477 57.4029C68.5284 54.9157 69.7842 51.6758 69.7842 48.2755C69.7842 43.5482 67.2783 39.1135 63.2456 36.7023C61.1961 35.4762 58.8514 34.8284 56.459 34.8284Z" fill="white"/>
<ellipse cx="56.3638" cy="48.3115" rx="12.0689" ry="12.1865" fill="white"/>
<path d="M75.3852 66.8866C75.1786 66.8866 74.9726 66.8106 74.8104 66.6576L66.288 58.5992C65.949 58.2784 65.9305 57.7393 66.2493 57.3975C66.5659 57.0546 67.1014 57.037 67.4393 57.3584L75.9617 65.4168C76.3007 65.7376 76.3187 66.2767 75.9998 66.6185C75.8342 66.7959 75.6097 66.8866 75.3852 66.8866Z" fill="white"/>
<path d="M16.2263 62.1982H12.4496C9.89431 62.1982 8.36914 60.5482 8.36914 57.785V24.7534C8.36914 22.1806 9.78036 20.8208 12.4496 20.8208H16.2263C16.6911 20.8208 17.0683 21.2017 17.0683 21.671C17.0683 22.1403 16.6911 22.5212 16.2263 22.5212H12.4496C10.454 22.5212 10.0532 23.3754 10.0532 24.7534V57.7844C10.0532 59.5846 10.8598 60.4972 12.4496 60.4972H16.2263C16.6911 60.4972 17.0683 60.8781 17.0683 61.3474C17.0683 61.8167 16.6911 62.1982 16.2263 62.1982Z" fill="white"/>
<defs>
<linearGradient id="paint0_linear" x1="62.4804" y1="12.9296" x2="30.9773" y2="65.9681" gradientUnits="userSpaceOnUse">
<stop stop-color="#E8E2FF"/>
<stop offset="0.969288" stop-color="#C4C4C4" stop-opacity="0"/>
</linearGradient>
</defs>
</svg>
