<svg width="85" height="85" viewBox="0 0 85 85" fill="none" xmlns="http://www.w3.org/2000/svg">
<path d="M41.8158 17.5606C42.1881 17.5606 42.4902 17.8628 42.4902 18.2351C42.4902 19.9742 41.4116 21.0547 39.6746 21.0547C39.3023 21.0547 39.0002 20.7525 39.0002 20.3802C39.0002 20.008 39.3023 19.7058 39.6746 19.7058C40.3041 19.7058 41.1413 19.5534 41.1413 18.2351C41.1413 17.8628 41.4435 17.5606 41.8158 17.5606Z" fill="white"/>
<path d="M59.0638 11.3879C59.4361 11.3879 59.7383 11.6901 59.7383 12.0624V14.7601C59.7383 15.1324 59.4361 15.4346 59.0638 15.4346C58.6915 15.4346 58.3894 15.1324 58.3894 14.7601V12.0624C58.3894 11.6901 58.6915 11.3879 59.0638 11.3879Z" fill="white"/>
<path d="M61.7631 11.3879C62.1353 11.3879 62.4375 11.6901 62.4375 12.0624V14.7601C62.4375 15.1324 62.1353 15.4346 61.7631 15.4346C61.3908 15.4346 61.0886 15.1324 61.0886 14.7601V12.0624C61.0886 11.6901 61.3908 11.3879 61.7631 11.3879Z" fill="white"/>
<path d="M64.4603 11.3879C64.8326 11.3879 65.1348 11.6901 65.1348 12.0624V14.7601C65.1348 15.1324 64.8326 15.4346 64.4603 15.4346C64.088 15.4346 63.7859 15.1324 63.7859 14.7601V12.0624C63.7859 11.6901 64.088 11.3879 64.4603 11.3879Z" fill="white"/>
<rect x="56.7969" y="8.91504" width="10.7911" height="14.3881" fill="white"/>
<circle cx="47.0262" cy="43.0975" r="32.2743" fill="url(#paint0_linear)"/>
<path d="M21.2097 76.809H12.3062C11.0904 76.809 10.2734 75.9331 10.2734 74.6292V53.9257C10.2734 52.5737 11.1093 51.6299 12.3062 51.6299H21.2102C22.5905 51.6299 23.3131 52.785 23.3131 53.9257V74.6292C23.3126 75.9129 22.448 76.809 21.2097 76.809ZM12.3062 52.9788C11.7113 52.9788 11.6223 53.5718 11.6223 53.9257V74.6292C11.6223 75.4601 12.1187 75.4601 12.3062 75.4601H21.2102C21.8334 75.4601 21.9642 75.0082 21.9642 74.6292V53.9257C21.9642 53.7674 21.9278 52.9788 21.2102 52.9788H12.3062Z" fill="white"/>
<path d="M51.7127 65.1188H39.4991C39.1268 65.1188 38.8246 64.8166 38.8246 64.4443C38.8246 64.072 39.1268 63.7699 39.4991 63.7699H51.7127C52.8476 63.7699 53.7369 62.8985 53.7369 61.7861C53.7369 60.6737 52.8476 59.8024 51.7127 59.8024C51.4866 59.8123 45.4625 60.0658 43.3856 59.7916C42.0912 59.6194 40.3196 59.0074 38.4442 58.3591C36.6223 57.73 34.7393 57.079 33.5267 56.9418C31.1423 56.6716 23.1744 57.5281 23.0949 57.5367C22.7181 57.5763 22.3912 57.3092 22.3516 56.9391C22.3116 56.5686 22.5791 56.2359 22.9492 56.1959C23.2828 56.1599 31.1468 55.3146 33.6791 55.6019C35.0388 55.7562 36.9937 56.4315 38.8844 57.0848C40.6146 57.6824 42.4032 58.2606 43.5628 58.4144C45.5232 58.6742 51.6219 58.3748 51.6835 58.3748C51.6839 58.3748 51.6844 58.3748 51.6849 58.3748C53.5728 58.3748 55.0854 59.9098 55.0854 61.747C55.0854 63.5842 53.5728 65.1188 51.7127 65.1188Z" fill="white"/>
<path d="M37.1881 67.2646C36.8158 67.2646 36.5137 66.9624 36.5137 66.5901C36.5137 64.851 37.5923 63.7705 39.3292 63.7705C39.7015 63.7705 40.0037 64.0727 40.0037 64.4449C40.0037 64.8172 39.7015 65.1194 39.3292 65.1194C38.6998 65.1194 37.8626 65.2718 37.8626 66.5901C37.8626 66.9624 37.5604 67.2646 37.1881 67.2646Z" fill="white"/>
<path d="M42.2078 75.0111C40.5482 75.0111 39.3648 74.5484 39.0658 74.4185L28.6214 71.8633H23.3131C22.9408 71.8633 22.6387 71.5611 22.6387 71.1888C22.6387 70.8165 22.9408 70.5144 23.3131 70.5144H28.7028C28.7567 70.5144 28.8107 70.5211 28.8629 70.5337L39.4453 73.1227C39.4902 73.1335 39.5334 73.1492 39.5748 73.169C39.5982 73.1798 42.1147 74.3232 45.1677 73.0678L66.0614 61.3888C66.0897 61.373 66.1199 61.3591 66.1504 61.3469C66.4445 61.2327 67.2714 60.7997 67.538 60.1829C67.6589 59.9032 67.6518 59.6051 67.5164 59.2715C67.2161 58.5287 67.0645 58.3394 66.9903 58.3115C66.7251 58.213 65.6302 58.762 64.3605 59.3992L63.8506 59.6545C60.6776 61.2408 53.6989 64.4876 53.6292 64.52C53.2911 64.6764 52.8896 64.5299 52.7331 64.1926C52.5762 63.8545 52.7228 63.4534 53.0604 63.2965C53.1306 63.2642 60.0922 60.0259 63.2477 58.4477L63.7553 58.1933C65.802 57.1663 66.6495 56.741 67.4661 57.049C68.1284 57.2985 68.4471 57.9738 68.7673 58.7647C69.0384 59.4338 69.0402 60.1123 68.7731 60.7256C68.2677 61.8842 66.9841 62.4638 66.6806 62.5879L45.7918 74.2643C45.7693 74.2764 45.7459 74.2881 45.7225 74.298C44.4339 74.8353 43.2307 75.0111 42.2078 75.0111Z" fill="white"/>
<path d="M57.7882 8.01619H66.6918C67.9076 8.01619 68.7246 8.89207 68.7246 10.196V30.8995C68.7246 32.2515 67.8887 33.1953 66.6918 33.1953H57.7877C56.4074 33.1953 55.6848 32.0402 55.6848 30.8995V10.196C55.6853 8.9123 56.5499 8.01619 57.7882 8.01619ZM66.6918 31.8464C67.2867 31.8464 67.3757 31.2534 67.3757 30.8995V10.196C67.3757 9.36507 66.8793 9.36507 66.6918 9.36507H57.7877C57.1645 9.36507 57.0337 9.81695 57.0337 10.196V30.8995C57.0337 31.0578 57.0701 31.8464 57.7877 31.8464H66.6918Z" fill="white"/>
<path d="M27.283 19.706H39.4968C39.8691 19.706 40.1713 20.0081 40.1713 20.3804C40.1713 20.7527 39.8691 21.0548 39.4968 21.0548H27.283C26.1481 21.0548 25.2588 21.9262 25.2588 23.0386C25.2588 24.151 26.1481 25.0223 27.283 25.0223C27.5092 25.0125 33.5333 24.7589 35.6102 25.0331C36.9047 25.2053 38.6762 25.8173 40.5517 26.4656C42.3736 27.0947 44.2566 27.7457 45.4693 27.8829C47.8537 28.1531 55.8216 27.2966 55.9012 27.288C56.278 27.2485 56.6049 27.5155 56.6445 27.8856C56.6845 28.2561 56.417 28.5888 56.0469 28.6288C55.7133 28.6648 47.8492 29.5101 45.3169 29.2228C43.9572 29.0685 42.0022 28.3932 40.1115 27.7399C38.3813 27.1423 36.5926 26.5641 35.433 26.4103C33.4726 26.1505 27.3738 26.4499 27.3122 26.4499C27.3118 26.4499 27.3113 26.4499 27.3109 26.4499C25.4229 26.4499 23.9103 24.9149 23.9103 23.0777C23.9103 21.2405 25.4229 19.706 27.283 19.706Z" fill="white"/>
<path d="M36.79 9.81359C38.4496 9.81359 39.633 10.2763 39.932 10.4062L50.3766 12.9614H55.6849C56.0572 12.9614 56.3594 13.2636 56.3594 13.6359C56.3594 14.0082 56.0572 14.3103 55.6849 14.3103H50.2952C50.2412 14.3103 50.1873 14.3036 50.1351 14.291L39.5526 11.702C39.5076 11.6912 39.4644 11.6755 39.4231 11.6557C39.3997 11.6449 36.8831 10.5015 33.8301 11.7569L12.9361 23.436C12.9078 23.4517 12.8776 23.4656 12.8471 23.4778C12.553 23.592 11.7261 24.025 11.4595 24.6418C11.3386 24.9215 11.3457 25.2196 11.4811 25.5532C11.7814 26.296 11.933 26.4853 12.0072 26.5132C12.2724 26.6117 13.3673 26.0627 14.6371 25.4256L15.1469 25.1702C18.32 23.5839 25.2987 20.3371 25.3684 20.3047C25.7066 20.1483 26.1081 20.2949 26.2646 20.6321C26.4215 20.9702 26.2749 21.3713 25.9372 21.5282C25.8671 21.5606 18.9054 24.7988 15.7499 26.377L15.2423 26.6315C13.1955 27.6584 12.348 28.0837 11.5314 27.7758C10.8691 27.5262 10.5503 26.8509 10.2302 26.06C9.95908 25.3909 9.95728 24.7124 10.2244 24.0992C10.7297 22.9405 12.0135 22.3609 12.317 22.2368L33.206 10.5604C33.2285 10.5483 33.2519 10.5366 33.2752 10.5267C34.5639 9.9894 35.7671 9.81359 36.79 9.81359Z" fill="white"/>
<rect x="36.3418" y="33.7534" width="30.5747" height="13.9384" rx="1.79851" transform="rotate(16.3672 36.3418 33.7534)" fill="white" stroke="white" stroke-width="0.899254"/>
<circle cx="60.1833" cy="44.4357" r="1.79851" fill="#AC98FF"/>
<rect x="11.375" y="52.5293" width="10.7911" height="14.3881" fill="white"/>
<defs>
<linearGradient id="paint0_linear" x1="59.9607" y1="14.9412" x2="26.6415" y2="71.584" gradientUnits="userSpaceOnUse">
<stop stop-color="#E8E2FF"/>
<stop offset="0.969288" stop-color="#C4C4C4" stop-opacity="0"/>
</linearGradient>
</defs>
</svg>
