<svg width="85" height="85" viewBox="0 0 85 85" fill="none" xmlns="http://www.w3.org/2000/svg">
<circle cx="45.1328" cy="47.1768" r="32" fill="url(#paint0_linear)"/>
<path d="M60.8222 69.5667H22.9909C20.5143 69.5667 19.0352 67.8153 19.0352 64.8803V17.6573C19.0352 14.9457 20.4402 13.4521 22.9909 13.4521H53.8537C54.0861 13.4521 54.3084 13.5491 54.4678 13.7197L64.2756 24.2414C64.4232 24.399 64.5041 24.6076 64.5041 24.8241V35.9705C64.5041 36.2721 64.3458 36.5509 64.0887 36.704C63.8304 36.8559 63.5133 36.8599 63.2523 36.7131C60.971 35.427 58.8098 34.8284 56.4544 34.8284C52.7416 34.8284 49.1676 36.416 46.6477 39.1838C45.3308 40.6258 44.3636 42.3098 43.7697 44.1888C43.3537 45.5015 43.1427 46.8766 43.1427 48.2772C43.1427 48.3815 43.1415 48.4829 43.1505 48.5827C43.1528 48.6025 43.1539 48.6229 43.1544 48.6428C43.187 50.1635 43.4783 51.6582 44.0234 53.086C45.9791 58.2542 50.9757 61.7248 56.4549 61.7248C58.8098 61.7248 60.9704 61.1252 63.2534 59.8402C63.5133 59.6934 63.8316 59.6974 64.0892 59.8493C64.3463 60.0029 64.5046 60.2817 64.5046 60.5833V64.882C64.5041 68.7528 62.5023 69.5667 60.8222 69.5667ZM22.9909 15.1526C21.3776 15.1526 20.7192 15.8781 20.7192 17.6573V64.8803C20.7192 66.8619 21.4832 67.8663 22.9909 67.8663H60.8233C61.8607 67.8663 62.8206 67.5046 62.8206 64.8803V61.9697C60.7301 62.948 58.6358 63.4242 56.4538 63.4242C50.2807 63.4242 44.6532 59.5143 42.4505 53.6937C41.8398 52.093 41.5097 50.4141 41.4704 48.7057C41.4592 48.5657 41.4586 48.4212 41.4586 48.2749C41.4586 46.6986 41.6966 45.1484 42.1665 43.6684C42.8339 41.5531 43.9257 39.6548 45.4082 38.0309C48.2453 34.9146 52.2718 33.1268 56.4544 33.1268C58.6374 33.1268 60.7318 33.6041 62.8211 34.5813V25.1608L53.4916 15.152H22.9909V15.1526Z" fill="white"/>
<path d="M63.6734 25.6743C63.4511 25.6743 63.2283 25.5853 63.0627 25.4091L53.2425 14.9485C52.9231 14.6073 52.9366 14.0694 53.2745 13.7463C53.6124 13.4243 54.1452 13.4379 54.4651 13.7786L64.2853 24.2391C64.6041 24.5804 64.5906 25.1183 64.2527 25.4414C64.0916 25.5972 63.8834 25.6743 63.6734 25.6743Z" fill="white"/>
<path d="M53.5588 25.6389C53.094 25.6389 52.7168 25.258 52.7168 24.7887V14.5861C52.7168 14.1167 53.094 13.7358 53.5588 13.7358C54.0236 13.7358 54.4008 14.1167 54.4008 14.5861V24.7887C54.4008 25.258 54.0236 25.6389 53.5588 25.6389Z" fill="white"/>
<path d="M63.381 25.9221H53.8381C53.3733 25.9221 52.9961 25.5412 52.9961 25.0719C52.9961 24.6026 53.3733 24.2217 53.8381 24.2217H63.381C63.8458 24.2217 64.223 24.6026 64.223 25.0719C64.223 25.5412 63.8458 25.9221 63.381 25.9221Z" fill="white"/>
<path d="M38.1224 29.323H29.1408C28.6761 29.323 28.2988 28.9421 28.2988 28.4728C28.2988 28.0035 28.6761 27.6226 29.1408 27.6226H38.1224C38.5872 27.6226 38.9644 28.0035 38.9644 28.4728C38.9644 28.9421 38.5872 29.323 38.1224 29.323Z" fill="white"/>
<path d="M47.6652 34.4241H29.1408C28.6761 34.4241 28.2988 34.0432 28.2988 33.5739C28.2988 33.1045 28.6761 32.7236 29.1408 32.7236H47.6652C48.13 32.7236 48.5072 33.1045 48.5072 33.5739C48.5072 34.0432 48.13 34.4241 47.6652 34.4241Z" fill="white"/>
<path d="M45.9812 39.5256H29.1408C28.6761 39.5256 28.2988 39.1447 28.2988 38.6754C28.2988 38.2061 28.6761 37.8252 29.1408 37.8252H45.9812C46.446 37.8252 46.8232 38.2061 46.8232 38.6754C46.8232 39.1447 46.446 39.5256 45.9812 39.5256Z" fill="white"/>
<path d="M42.6131 44.6267H29.1408C28.6761 44.6267 28.2988 44.2458 28.2988 43.7765C28.2988 43.3072 28.6761 42.9263 29.1408 42.9263H42.6131C43.0779 42.9263 43.4551 43.3072 43.4551 43.7765C43.4551 44.2458 43.0779 44.6267 42.6131 44.6267Z" fill="white"/>
<path d="M42.0518 49.7283H29.1408C28.6761 49.7283 28.2988 49.3474 28.2988 48.8781C28.2988 48.4087 28.6761 48.0278 29.1408 48.0278H42.0518C42.5166 48.0278 42.8938 48.4087 42.8938 48.8781C42.8938 49.3474 42.5166 49.7283 42.0518 49.7283Z" fill="white"/>
<path d="M42.6131 54.2629H29.1408C28.6761 54.2629 28.2988 53.882 28.2988 53.4127C28.2988 52.9434 28.6761 52.5625 29.1408 52.5625H42.6131C43.0779 52.5625 43.4551 52.9434 43.4551 53.4127C43.4551 53.882 43.0779 54.2629 42.6131 54.2629Z" fill="white"/>
<path d="M56.4609 63.4253C50.2839 63.4253 44.6536 59.5159 42.4509 53.6948C41.8401 52.0941 41.5101 50.4152 41.4708 48.7068C41.4595 48.5668 41.459 48.4223 41.459 48.2755C41.459 46.6997 41.697 45.1495 42.1668 43.6701C42.8337 41.557 43.9261 39.6605 45.4125 38.032C48.249 34.9157 52.2767 33.1279 56.4615 33.1279C59.1554 33.1279 61.7987 33.858 64.1053 35.2399C68.6477 37.9561 71.4696 42.9514 71.4696 48.2766C71.4696 52.1049 70.0544 55.7551 67.4857 58.558C66.4961 59.6372 65.3588 60.5657 64.1047 61.3144C61.7971 62.6952 59.1537 63.4253 56.4609 63.4253ZM56.4609 34.8284C52.7459 34.8284 49.1713 36.416 46.6503 39.1838C45.3306 40.6297 44.3623 42.3131 43.77 44.1887C43.3535 45.5015 43.1419 46.8766 43.1419 48.2772C43.1419 48.3815 43.1408 48.4829 43.1503 48.5827C43.1526 48.6025 43.1537 48.6229 43.1542 48.6428C43.1862 50.1635 43.4781 51.6582 44.0232 53.086C45.9789 58.2542 50.9783 61.7248 56.4609 61.7248C58.8517 61.7248 61.1975 61.0764 63.2464 59.8509C64.3607 59.1844 65.3711 58.3619 66.2496 57.4029C68.5304 54.9157 69.7861 51.6758 69.7861 48.2755C69.7861 43.5482 67.2803 39.1135 63.2476 36.7023C61.1981 35.4762 58.8534 34.8284 56.4609 34.8284Z" fill="white"/>
<path d="M55.8059 38.4451C56.1096 37.5101 57.4324 37.5101 57.7362 38.4451L59.5052 43.8894C59.641 44.3076 60.0307 44.5907 60.4703 44.5907H66.1949C67.178 44.5907 67.5867 45.8487 66.7914 46.4265L62.1601 49.7913C61.8044 50.0498 61.6556 50.5078 61.7915 50.926L63.5604 56.3703C63.8642 57.3053 62.7941 58.0828 61.9988 57.5049L57.3675 54.1401C57.0118 53.8817 56.5302 53.8817 56.1745 54.1401L51.5433 57.5049C50.7479 58.0828 49.6778 57.3053 49.9816 56.3703L51.7506 50.926C51.8864 50.5078 51.7376 50.0498 51.3819 49.7913L46.7507 46.4265C45.9553 45.8487 46.3641 44.5907 47.3472 44.5907H53.0717C53.5114 44.5907 53.901 44.3076 54.0369 43.8894L55.8059 38.4451Z" fill="white"/>
<path d="M47.6387 72.1344V60.3985C47.6387 60.1792 47.8981 60.0632 48.0616 60.2094L52.0611 63.788L59.7726 62.8808C59.8018 62.8773 59.8302 62.8689 59.8565 62.8557L65.5386 60.0146C65.7073 59.9303 65.9058 60.053 65.9058 60.2416V72.1167C65.9058 72.3027 65.7123 72.4255 65.544 72.3463L57.2796 68.4572L47.9908 72.3683C47.8236 72.4387 47.6387 72.3159 47.6387 72.1344Z" fill="white"/>
<path d="M57.2796 68.4572L47.9908 72.3683C47.8236 72.4387 47.6387 72.3159 47.6387 72.1344V60.3985C47.6387 60.1792 47.8981 60.0632 48.0616 60.2094L57.2796 68.4572ZM57.2796 68.4572L65.544 72.3463C65.7123 72.4255 65.9058 72.3027 65.9058 72.1167V60.2416C65.9058 60.053 65.7073 59.9303 65.5386 60.0146L59.8565 62.8557C59.8302 62.8689 59.8018 62.8773 59.7726 62.8808L51.1906 63.8904" stroke="white" stroke-width="2.02968" stroke-linecap="round"/>
<defs>
<linearGradient id="paint0_linear" x1="57.9574" y1="19.2598" x2="24.9213" y2="75.4212" gradientUnits="userSpaceOnUse">
<stop stop-color="#97AEFF"/>
<stop offset="0.969288" stop-color="#C4C4C4" stop-opacity="0"/>
</linearGradient>
</defs>
</svg>
