<svg width="85" height="85" viewBox="0 0 85 85" fill="none" xmlns="http://www.w3.org/2000/svg">
<circle cx="48.0566" cy="42.8228" r="32" fill="url(#paint0_linear)"/>
<path d="M31.7324 19.6968H72.9751V50.0862L52.0824 31.6355L31.7324 19.6968Z" fill="white"/>
<path d="M31.921 20.2137C32.1319 19.581 32.724 19.1543 33.3909 19.1543H71.9401C72.8064 19.1543 73.5044 19.8647 73.4892 20.7308L72.9972 48.7757C72.984 49.5323 72.4262 50.1685 71.6779 50.2808L68.0524 50.8246C67.7245 50.8738 67.4211 51.0268 67.1866 51.2613L62.1209 56.327L60.6166 52.6738C60.3776 52.0932 59.8118 51.7143 59.184 51.7143H54.9876C54.1319 51.7143 53.4382 51.0207 53.4382 50.165V34.7624C53.4382 34.6679 53.4296 34.5735 53.4124 34.4806L53.13 32.9546C52.9942 32.2201 52.3535 31.6871 51.6065 31.6871H50.1822L30.1035 31.093L30.3654 25.0691C30.3717 24.9253 30.3979 24.783 30.4435 24.6464L31.921 20.2137Z" fill="white"/>
<path d="M61.2215 51.7462H58.398C57.9487 51.7462 57.584 51.3815 57.584 50.9322C57.584 50.4828 57.9487 50.1182 58.398 50.1182H61.2215C61.6708 50.1182 62.0355 50.4828 62.0355 50.9322C62.0355 51.3815 61.6708 51.7462 61.2215 51.7462Z" fill="white"/>
<path d="M70.2517 51.7462H67.6083C67.159 51.7462 66.7943 51.3816 66.7943 50.9322C66.7943 50.4829 67.159 50.1182 67.6083 50.1182H70.2517C71.7337 50.1182 72.94 48.9152 72.94 47.4364V22.3798C72.94 20.8999 71.7337 19.6969 70.2517 19.6969H34.479C32.9965 19.6969 31.7901 20.9005 31.7901 22.3798V30.8215C31.7901 31.2709 31.4254 31.6355 30.9761 31.6355C30.5268 31.6355 30.1621 31.2709 30.1621 30.8215V22.3798C30.1621 20.0024 32.0983 18.0688 34.479 18.0688H70.2517C72.6318 18.0688 74.568 20.0024 74.568 22.3798V47.4358C74.568 49.8127 72.6313 51.7462 70.2517 51.7462Z" fill="white"/>
<path d="M61.2203 58.8954C61.1226 58.8954 61.0249 58.878 60.9299 58.8416C60.6146 58.7212 60.4062 58.4189 60.4062 58.0814V50.9323C60.4062 50.4829 60.7709 50.1183 61.2203 50.1183C61.6696 50.1183 62.0343 50.4829 62.0343 50.9323V55.9476L66.9975 50.3901C67.297 50.0548 67.8109 50.0255 68.1469 50.325C68.4822 50.6246 68.5115 51.139 68.212 51.4744L61.827 58.6235C61.6696 58.7998 61.4476 58.8954 61.2203 58.8954Z" fill="white"/>
<path d="M50.1229 64.1999H45.4749C45.0256 64.1999 44.6609 63.8352 44.6609 63.3859C44.6609 62.9365 45.0256 62.5719 45.4749 62.5719H50.1229C51.6027 62.5719 52.8058 61.3682 52.8058 59.8889V34.8334C52.8058 33.3536 51.6022 32.1505 50.1229 32.1505H14.3443C12.8617 32.1505 11.6553 33.3541 11.6553 34.8334V59.8889C11.6553 61.3688 12.8617 62.5719 14.3443 62.5719H39.0899C39.5392 62.5719 39.9039 62.9365 39.9039 63.3859C39.9039 63.8352 39.5392 64.1999 39.0899 64.1999H14.3443C11.9636 64.1999 10.0273 62.2663 10.0273 59.8889V34.8334C10.0273 32.456 11.9636 30.5225 14.3443 30.5225H50.1229C52.5003 30.5225 54.4338 32.456 54.4338 34.8334V59.8889C54.4338 62.2658 52.5003 64.1999 50.1229 64.1999Z" fill="white"/>
<path d="M45.4723 71.3502C45.245 71.3502 45.023 71.2547 44.8651 71.0784L38.4822 63.9303C38.1827 63.595 38.212 63.0805 38.5474 62.781C38.8827 62.482 39.3966 62.5107 39.6967 62.8461L44.6583 68.4025V63.3882C44.6583 62.9389 45.023 62.5742 45.4723 62.5742C45.9217 62.5742 46.2863 62.9389 46.2863 63.3882V70.5362C46.2863 70.8738 46.078 71.1766 45.7621 71.2965C45.6682 71.3329 45.57 71.3502 45.4723 71.3502Z" fill="white"/>
<path d="M23.4947 39.6568H16.732C16.2826 39.6568 15.918 39.2921 15.918 38.8428C15.918 38.3935 16.2826 38.0288 16.732 38.0288H23.4947C23.944 38.0288 24.3087 38.3935 24.3087 38.8428C24.3087 39.2921 23.9446 39.6568 23.4947 39.6568Z" fill="white"/>
<path d="M39.0926 44.232H16.732C16.2826 44.232 15.918 43.8673 15.918 43.418C15.918 42.9687 16.2826 42.604 16.732 42.604H39.0926C39.5419 42.604 39.9066 42.9687 39.9066 43.418C39.9066 43.8673 39.5419 44.232 39.0926 44.232Z" fill="white"/>
<path d="M37.8157 49.8013H16.732C16.2826 49.8013 15.918 49.4367 15.918 48.9873C15.918 48.538 16.2826 48.1733 16.732 48.1733H37.8157C38.265 48.1733 38.6297 48.538 38.6297 48.9873C38.6297 49.4367 38.265 49.8013 37.8157 49.8013Z" fill="white"/>
<defs>
<linearGradient id="paint0_linear" x1="60.8812" y1="14.9058" x2="27.8451" y2="71.0672" gradientUnits="userSpaceOnUse">
<stop stop-color="#E8E2FF"/>
<stop offset="0.969288" stop-color="#C4C4C4" stop-opacity="0"/>
</linearGradient>
</defs>
</svg>
