<svg width="85" height="85" viewBox="0 0 85 85" fill="none" xmlns="http://www.w3.org/2000/svg">
<circle cx="50.3084" cy="42.0701" r="31.0701" fill="url(#paint0_linear)"/>
<path d="M79.3544 25.8251C78.903 25.8251 78.5367 25.4588 78.5367 25.0075C78.5367 19.9509 74.3337 15.6791 69.3588 15.6791C68.9206 15.6791 68.4845 15.7096 68.0615 15.7696C67.6124 15.8306 67.2003 15.5216 67.1371 15.0752C67.0738 14.6282 67.3845 14.214 67.8315 14.1507C68.3302 14.0799 68.8437 14.0444 69.3588 14.0444C75.22 14.0444 80.172 19.0651 80.172 25.008C80.172 25.4588 79.8057 25.8251 79.3544 25.8251Z" fill="white"/>
<path d="M49.1848 70.3057C48.7335 70.3057 48.3672 69.9394 48.3672 69.488C48.3672 69.0367 48.7335 68.6704 49.1848 68.6704C54.3096 68.6704 58.3246 64.7999 58.3246 59.8588V45.7468C58.3246 45.2955 58.6909 44.9292 59.1422 44.9292C59.5935 44.9292 59.9598 45.2955 59.9598 45.7468V59.8588C59.9598 65.7167 55.2269 70.3057 49.1848 70.3057Z" fill="white"/>
<path d="M23.7121 59.1014C23.2608 59.1014 22.8945 58.7351 22.8945 58.2838V24.5497C22.8945 18.8057 27.8661 14.1328 33.977 14.1328H67.9454C68.3793 14.1328 68.7374 14.4713 68.7619 14.9046C68.7859 15.3374 68.4682 15.7141 68.0375 15.7626C63.508 16.2755 59.9595 20.1352 59.9595 24.5497V39.7513C59.9595 40.2026 59.5933 40.5689 59.1419 40.5689C58.6906 40.5689 58.3243 40.2026 58.3243 39.7513V24.5497C58.3243 20.9522 60.3019 17.6671 63.2731 15.768H33.977C28.7677 15.768 24.5298 19.7078 24.5298 24.5497V58.2838C24.5298 58.7351 24.1635 59.1014 23.7121 59.1014Z" fill="white"/>
<path d="M13.9145 70.566C7.93773 70.2788 3.11328 65.2761 3.11328 59.4138C3.11328 58.9625 3.47957 58.5962 3.93089 58.5962C4.38221 58.5962 4.7485 58.9625 4.7485 59.4138C4.7485 64.417 8.87526 68.6866 13.9477 68.9319L43.47 68.691C40.3822 66.5859 38.4155 63.1263 38.4155 59.4138C38.4155 58.9625 38.7818 58.5962 39.2331 58.5962C39.6845 58.5962 40.0508 58.9625 40.0508 59.4138C40.0508 63.6021 43.0034 67.4193 47.231 68.697C47.618 68.8136 47.8611 69.1957 47.8039 69.5952C47.7467 69.9953 47.406 70.2935 47.001 70.2967L13.9145 70.566Z" fill="white"/>
<path d="M39.2474 59.9189H3.81761C3.36629 59.9189 3 59.5526 3 59.1013C3 58.65 3.36629 58.2837 3.81761 58.2837H39.2474C39.6987 58.2837 40.065 58.65 40.065 59.1013C40.065 59.5526 39.6987 59.9189 39.2474 59.9189Z" fill="white"/>
<path d="M79.0378 26.1245H59.9602C59.5089 26.1245 59.1426 25.7582 59.1426 25.3069C59.1426 24.8555 59.5089 24.4893 59.9602 24.4893H79.0378C79.4891 24.4893 79.8554 24.8555 79.8554 25.3069C79.8554 25.7582 79.4891 26.1245 79.0378 26.1245Z" fill="white"/>
<path d="M41.9728 23.3989H31.6164C31.1651 23.3989 30.7988 23.0326 30.7988 22.5813C30.7988 22.13 31.1651 21.7637 31.6164 21.7637H41.9728C42.4242 21.7637 42.7905 22.13 42.7905 22.5813C42.7905 23.0326 42.4242 23.3989 41.9728 23.3989Z" fill="white"/>
<path d="M47.4236 28.8496H31.6164C31.1651 28.8496 30.7988 28.4833 30.7988 28.032C30.7988 27.5806 31.1651 27.2144 31.6164 27.2144H47.4236C47.8749 27.2144 48.2412 27.5806 48.2412 28.032C48.2412 28.4833 47.8749 28.8496 47.4236 28.8496Z" fill="white"/>
<path d="M35.432 34.3003H31.6164C31.1651 34.3003 30.7988 33.934 30.7988 33.4826C30.7988 33.0313 31.1651 32.665 31.6164 32.665H35.432C35.8833 32.665 36.2496 33.0313 36.2496 33.4826C36.2496 33.934 35.8833 34.3003 35.432 34.3003Z" fill="white"/>
<path d="M44.6944 53.1016C44.3423 53.1016 44.0179 52.8733 43.9116 52.519C43.7819 52.0862 44.0272 51.6305 44.46 51.5013L51.9368 49.2611C52.369 49.1319 52.8252 49.3766 52.9544 49.8094C53.0842 50.2422 52.8389 50.6979 52.4061 50.8271L44.9293 53.0673C44.8514 53.0907 44.7723 53.1016 44.6944 53.1016Z" fill="white"/>
<path d="M44.696 53.1017C44.5189 53.1017 44.3406 53.0445 44.1902 52.9262C43.8359 52.6466 43.7748 52.1326 44.0545 51.7783L48.916 45.6151C49.1961 45.2597 49.7096 45.2003 50.0639 45.4794C50.4182 45.759 50.4793 46.273 50.1996 46.6273L45.3381 52.7905C45.1773 52.9954 44.938 53.1017 44.696 53.1017Z" fill="white"/>
<path d="M52.1718 50.8634C51.9074 50.8634 51.648 50.7353 51.491 50.4993L48.8757 46.5775C48.7525 46.3927 48.7095 46.1659 48.7574 45.949C48.8049 45.7326 48.9384 45.544 49.1275 45.4279L76.0422 28.8615C76.4161 28.6315 76.9072 28.7377 77.1509 29.104L79.7656 33.0264C79.8888 33.2112 79.9318 33.4379 79.8839 33.6549C79.8365 33.8712 79.7029 34.0593 79.5138 34.1759L52.5997 50.7418C52.4661 50.8236 52.3179 50.8634 52.1718 50.8634ZM50.7066 46.3752L52.4138 48.936L77.9347 33.2281L76.2275 30.6673L50.7066 46.3752Z" fill="white"/>
<line x1="77.5705" y1="32.0294" x2="51.407" y2="47.8365" stroke="white" stroke-width="3.81552"/>
<path d="M48.9674 70.2973H46.9953C46.544 70.2973 46.1777 69.931 46.1777 69.4797C46.1777 69.0284 46.544 68.6621 46.9953 68.6621H48.9674C49.4187 68.6621 49.785 69.0284 49.785 69.4797C49.785 69.931 49.4187 70.2973 48.9674 70.2973Z" fill="white"/>
<path d="M38.7031 59.2856H4.36343L3.81836 60.9209L6.54373 66.3716L12.8121 69.9146L44.1538 68.8244L39.5207 63.9188L38.7031 59.2856Z" fill="white" stroke="white" stroke-width="0.545074"/>
<defs>
<linearGradient id="paint0_linear" x1="62.7603" y1="14.9644" x2="30.6842" y2="69.4938" gradientUnits="userSpaceOnUse">
<stop stop-color="#E8E2FF"/>
<stop offset="0.969288" stop-color="#C4C4C4" stop-opacity="0"/>
</linearGradient>
</defs>
</svg>
