<svg width="35" height="35" viewBox="0 0 35 35" fill="none" xmlns="http://www.w3.org/2000/svg">
<mask id="mask0" style="mask-type:alpha" maskUnits="userSpaceOnUse" x="0" y="0" width="35" height="35">
<rect width="35" height="35" fill="#C4C4C4"/>
</mask>
<g mask="url(#mask0)">
<path fill-rule="evenodd" clip-rule="evenodd" d="M12.6301 5.43455H14.2206V4.54791C14.2206 3.69651 14.9162 3 15.7685 3H20.1786C21.0299 3 21.7265 3.69558 21.7265 4.54791V5.43455H23.317C24.8121 5.43455 26.0344 6.65692 26.0344 8.15196V29.2996C26.0344 30.7946 24.8121 32.017 23.317 32.017H12.631C11.1359 32.017 9.91357 30.7946 9.91357 29.2996V8.15196C9.91357 6.65692 11.1359 5.43455 12.631 5.43455H12.6301ZM17.9731 10.2675V16.2578L22.6687 18.2741L17.9731 27.185V21.1946L13.2774 19.1784L17.9731 10.2675ZM12.6301 6.84334H23.3161C24.0367 6.84334 24.6247 7.43227 24.6247 8.15196V29.2996C24.6247 30.0202 24.0358 30.6082 23.3161 30.6082H12.6301C11.9094 30.6082 11.3214 30.0193 11.3214 29.2996V8.15196C11.3214 7.43134 11.9104 6.84334 12.6301 6.84334V6.84334Z" fill="#626262"/>
</g>
</svg>
