<svg width="27" height="27" viewBox="0 0 27 27" fill="none" xmlns="http://www.w3.org/2000/svg">
<path d="M19.0062 22.2079V2.01046C19.0062 1.49439 18.525 1.11323 18.0226 1.23144L6.01812 4.05602C5.65661 4.14108 5.40112 4.46367 5.40112 4.83505L5.40112 21.8078" stroke="#333232" stroke-width="0.64024"/>
<path d="M19.1863 2.60059H19.8061C20.6901 2.60059 21.4067 3.3172 21.4067 4.20119V22.6081" stroke="#333232" stroke-width="0.64024"/>
<path d="M3.9637 22.4392L3.40549 23.9278C3.20929 24.451 3.59606 25.0091 4.15483 25.0091H21.5635C22.1921 25.0091 22.5754 24.3176 22.2422 23.7846L21.3066 22.2877C21.1269 22.0001 20.7854 21.857 20.4544 21.9306L16.2907 22.8559C16.2337 22.8685 16.1755 22.8749 16.1171 22.8749H9.87809C9.82784 22.8749 9.7777 22.8702 9.72834 22.8608L4.86279 21.934C4.48009 21.8611 4.1005 22.0744 3.9637 22.4392Z" stroke="#333232" stroke-width="0.64024" stroke-linecap="square"/>
<path d="M7.0882 8.65413C7.14792 8.71386 7.22258 8.74073 7.30022 8.74073C7.37787 8.74073 7.45252 8.71087 7.51225 8.65413L8.47083 7.69554L9.42942 8.65413C9.48915 8.71386 9.5638 8.74073 9.64145 8.74073C9.71909 8.74073 9.79374 8.71087 9.85347 8.65413C9.96993 8.53767 9.96993 8.34953 9.85347 8.23307L8.89488 7.27448L9.85347 6.3159C9.96993 6.19943 9.96993 6.0113 9.85347 5.89483C9.73701 5.77837 9.54887 5.77837 9.43241 5.89483L8.47382 6.85342L7.51225 5.88886C7.39578 5.7724 7.20765 5.7724 7.09119 5.88886C6.97472 6.00533 6.97472 6.19346 7.09119 6.30992L8.04977 7.26851L7.09119 8.2271C6.97174 8.34953 6.97173 8.53767 7.0882 8.65413Z" fill="#504E4E"/>
</svg>
