<svg width="35" height="35" viewBox="0 0 35 35" fill="none" xmlns="http://www.w3.org/2000/svg">
<mask id="mask0" style="mask-type:alpha" maskUnits="userSpaceOnUse" x="0" y="0" width="35" height="35">
<rect width="35" height="35" fill="#C4C4C4"/>
</mask>
<g mask="url(#mask0)">
<path d="M27.0526 19.8907C27.1943 20.0323 27.3795 20.103 27.565 20.103C27.7505 20.103 27.9356 20.0323 28.0773 19.8907C28.3603 19.6077 28.3603 19.1486 28.0773 18.866C21.8812 12.6714 11.8007 12.6707 5.6061 18.866C5.32313 19.149 5.32313 19.6077 5.6061 19.8907C5.88908 20.1736 6.34778 20.1736 6.63075 19.8907C12.2598 14.2609 21.4211 14.2609 27.0526 19.8907ZM31.4458 15.4972C31.5875 15.6388 31.7726 15.7095 31.9581 15.7095C32.1436 15.7095 32.3288 15.6388 32.4704 15.4972C32.7534 15.2142 32.7534 14.7555 32.4704 14.4725C28.2965 10.2982 22.7461 8 16.8417 8C10.9369 8 5.38654 10.2986 1.21223 14.4725C0.929257 14.7555 0.929257 15.2142 1.21223 15.4972C1.4952 15.7801 1.9539 15.7801 2.23688 15.4972C6.13727 11.5968 11.3243 9.44929 16.8417 9.44929C22.3591 9.44929 27.5454 11.5968 31.4458 15.4972Z" fill="#626262" stroke="#C1C1C1" stroke-width="0.354925"/>
<path d="M23.5103 24.7244C23.6066 24.8181 23.7325 24.8649 23.8586 24.8649C23.9847 24.8649 24.1106 24.8181 24.207 24.7244C24.3994 24.5372 24.3994 24.2335 24.207 24.0466C19.994 19.9487 13.1399 19.9482 8.92799 24.0466C8.73559 24.2338 8.73559 24.5372 8.92799 24.7244C9.1204 24.9116 9.43228 24.9116 9.62469 24.7244C13.4521 21.0002 19.6812 21.0002 23.5103 24.7244Z" fill="#626262" stroke="#C1C1C1" stroke-width="0.518919"/>
<circle cx="16.5675" cy="28.7568" r="2.59459" fill="#626262"/>
</g>
</svg>
