<svg width="35" height="35" viewBox="0 0 35 35" fill="none" xmlns="http://www.w3.org/2000/svg">
<mask id="mask0" style="mask-type:alpha" maskUnits="userSpaceOnUse" x="0" y="0" width="35" height="35">
<rect width="35" height="35" fill="#C4C4C4"/>
</mask>
<g mask="url(#mask0)">
<path d="M22.1259 30.9047C23.9495 30.9047 25.4223 29.4333 25.4223 27.6134V5.03573C25.4223 3.22051 23.9445 1.74444 22.1259 1.74444H11.7126C9.88901 1.74444 8.4162 3.21546 8.4162 5.03515V27.614C8.4162 29.4302 9.89351 30.9047 11.7126 30.9047H22.1259ZM11.7126 3.12371H11.8888V3.95335C11.8888 5.17393 12.8794 6.16225 14.1006 6.16225H19.7379C20.9584 6.16225 21.9496 5.17261 21.9496 3.95335V3.12371H22.1259C23.1836 3.12371 24.043 3.98319 24.043 5.03573V27.6134C24.043 28.6707 23.1886 29.5254 22.1259 29.5254H11.7126C10.654 29.5254 9.79546 28.6672 9.79546 27.614V5.03515C9.79546 3.97823 10.6497 3.12371 11.7126 3.12371ZM13.2681 3.95335V3.12371H20.5704V3.95335C20.5704 4.4098 20.1977 4.78299 19.7379 4.78299H14.1006C13.6399 4.78299 13.2681 4.41089 13.2681 3.95335Z" fill="#626262" stroke="#C1C1C1" stroke-width="0.511111"/>
<path d="M20.6952 11.8373L11.9509 16.756" stroke="#C1C1C1" stroke-width="1.09304" stroke-linecap="round"/>
<path d="M21.7881 16.2095L13.0438 21.1282" stroke="#C1C1C1" stroke-width="1.09304" stroke-linecap="round"/>
</g>
</svg>
