<svg width="27" height="27" viewBox="0 0 27 27" fill="none" xmlns="http://www.w3.org/2000/svg">
<path d="M4.98907 22.5857H8.2468C8.79207 22.5857 9.23588 22.1649 9.23588 21.6477V21.5478H11.576C11.7642 21.5478 11.941 21.6171 12.0738 21.7434L12.983 22.6061C13.3651 22.9684 13.873 23.1681 14.4134 23.1681H17.146V23.609C17.146 24.5348 17.9401 25.2881 18.916 25.2881H19.4138C20.3898 25.2881 21.1839 24.5348 21.1839 23.609V23.1681H21.2379C22.2621 23.1681 23.0955 22.3776 23.0955 21.406V14.446C23.0955 13.4744 22.2621 12.6839 21.2379 12.6839H21.1839V8.71957C22.3232 8.05535 23.0213 6.88139 23.0213 5.6034C23.0213 4.09073 22.0608 2.75504 20.5742 2.20028L20.0374 2V4.85121H18.2928V2L17.7557 2.20028C16.2691 2.75478 15.3083 4.09073 15.3083 5.6034C15.3083 6.88139 16.0066 8.05535 17.146 8.71957V9.66066C17.0451 9.62262 16.9357 9.60011 16.8206 9.60011H15.0274C14.487 9.60011 13.9791 9.79961 13.597 10.1621L11.9235 11.7496C11.7907 11.8756 11.6136 11.9452 11.4257 11.9452H9.22305C9.1595 11.4854 8.74843 11.128 8.2468 11.128H4.98907C4.4438 11.128 4 11.549 4 12.0663V21.6474C4 22.1647 4.4438 22.5857 4.98907 22.5857ZM20.3977 23.6088C20.3977 24.1234 19.9564 24.5421 19.4138 24.5421H18.916C18.3735 24.5421 17.9324 24.1234 17.9324 23.6088V23.1679H20.398V23.6088H20.3977ZM16.0947 5.6034C16.0947 4.59297 16.6335 3.68164 17.5066 3.15378V5.59719H20.8238V3.15352C21.6967 3.68138 22.2354 4.59271 22.2354 5.60314C22.2354 6.68111 21.611 7.66644 20.6061 8.17438L20.398 8.27969V12.6839H17.9324V8.27969L17.7243 8.17438C16.7191 7.66644 16.0947 6.68137 16.0947 5.6034ZM9.23588 12.6909H11.4257C11.8209 12.6909 12.2001 12.5419 12.4794 12.2769L14.1529 10.6895C14.3847 10.4695 14.6992 10.3458 15.0271 10.3458H16.8203C16.8752 10.3458 16.9199 10.3883 16.9199 10.4403V12.9981C16.9199 13.2366 17.1236 13.4299 17.3751 13.4299H21.2379C21.8295 13.4299 22.3091 13.8848 22.3091 14.446V14.9035C22.3091 15.1876 22.0663 15.4177 21.7671 15.4177H21.3282C21.111 15.4177 20.9351 15.5846 20.9351 15.7905C20.9351 15.9965 21.111 16.1634 21.3282 16.1634H21.7772C22.0709 16.1634 22.3093 16.3893 22.3093 16.6682V17.2538C22.3093 17.5325 22.0712 17.7586 21.7772 17.7586H21.3282C21.111 17.7586 20.9351 17.9255 20.9351 18.1315C20.9351 18.3374 21.111 18.5043 21.3282 18.5043H21.7772C22.0709 18.5043 22.3093 18.7302 22.3093 19.0092V19.5947C22.3093 19.8734 22.0712 20.0996 21.7772 20.0996H21.3282C21.111 20.0996 20.9351 20.2664 20.9351 20.4724C20.9351 20.6784 21.111 20.8453 21.3282 20.8453H22.0423C22.1896 20.8453 22.3091 20.9586 22.3091 21.0983V21.4057C22.3091 21.967 21.8295 22.4219 21.2379 22.4219H14.4131C14.0852 22.4219 13.7707 22.2982 13.5389 22.0782L12.6297 21.2158C12.3501 20.9506 11.9712 20.8016 11.5757 20.8016H9.2356V12.6909H9.23588ZM4.7864 12.0663C4.7864 11.9602 4.87751 11.8738 4.98907 11.8738H8.2468C8.35864 11.8738 8.44974 11.9602 8.44974 12.0663V21.6474C8.44974 21.7535 8.35864 21.8397 8.2468 21.8397H4.98907C4.87724 21.8397 4.7864 21.7532 4.7864 21.6474V12.0663V12.0663Z" fill="#504E4E"/>
</svg>
