<svg width="35" height="35" viewBox="0 0 35 35" fill="none" xmlns="http://www.w3.org/2000/svg">
<mask id="mask0" style="mask-type:alpha" maskUnits="userSpaceOnUse" x="0" y="0" width="35" height="35">
<rect width="35" height="35" fill="#C4C4C4"/>
</mask>
<g mask="url(#mask0)">
<path d="M11.2353 27.7059C8.50118 27.7059 6.29412 25.4988 6.29412 22.7647V21.1176H3V19.4706H6.29412V14.5294H3V12.8824H6.29412V11.2353C6.29412 8.50118 8.50118 6.29412 11.2353 6.29412H12.8824V3H14.5294V6.29412H19.4706V3H21.1176V6.29412H22.7647C25.4988 6.29412 27.7059 8.50118 27.7059 11.2353V12.8824H31V14.5294H27.7059V19.4706H31V21.1176H27.7059V22.7647C27.7059 25.4988 25.4988 27.7059 22.7647 27.7059H21.1176V31H19.4706V27.7059H14.5294V31H12.8824V27.7059H11.2353ZM11.2353 7.94118C9.42353 7.94118 7.94118 9.42353 7.94118 11.2353V22.7647C7.94118 24.5765 9.42353 26.0588 11.2353 26.0588H22.7647C24.5765 26.0588 26.0588 24.5765 26.0588 22.7647V11.2353C26.0588 9.42353 24.5765 7.94118 22.7647 7.94118H11.2353ZM12.8824 21.1176V12.8824H21.1176V21.1176H12.8824ZM14.5294 14.5294V19.4706H19.4706V14.5294H14.5294Z" fill="#626262"/>
</g>
</svg>
