<svg width="27" height="27" viewBox="0 0 27 27" fill="none" xmlns="http://www.w3.org/2000/svg">
<path d="M9 6.5V4.26508C9 3.01411 10.0141 2 11.2651 2H16.3615C17.6125 2 18.6266 3.01411 18.6266 4.26508V6.5V6.60295M9 21V22.8104C9 24.0614 10.0141 25.0755 11.2651 25.0755H16.3615C17.6125 25.0755 18.6266 24.0614 18.6266 22.8104V21" stroke="#333232" stroke-width="0.707838"/>
<rect x="6" y="6.56152" width="14.723" height="14.221" rx="1.98195" stroke="#333232" stroke-width="0.707838"/>
<mask id="path-3-inside-1" fill="white">
<rect x="20.2698" y="13.8916" width="2.37831" height="3.17109" rx="0.283135"/>
</mask>
<rect x="20.2698" y="13.8916" width="2.37831" height="3.17109" rx="0.283135" stroke="#333232" stroke-width="0.792771" mask="url(#path-3-inside-1)"/>
<mask id="path-4-inside-2" fill="white">
<rect x="20.2698" y="9.92773" width="2.37831" height="3.17109" rx="0.283135"/>
</mask>
<rect x="20.2698" y="9.92773" width="2.37831" height="3.17109" rx="0.283135" stroke="#333232" stroke-width="0.792771" mask="url(#path-4-inside-2)"/>
</svg>
